<svg viewBox="0 0 52 52" xml:space="preserve" xmlns="http://www.w3.org/2000/svg"><path d="M49.651 21.641a.997.997 0 0 0-.82-.43l-8.518.01-2.735-.314.953-2.546c.09-.25.08-.52-.03-.77a1.02 1.02 0 0 0-.56-.52l-22.48-8.41c-.52-.19-1.09.07-1.29.59l-5.6 14.99c-.2.51.07 1.09.58 1.28l14.016 5.243V35.4H10.17v-1.389c0-2.54-2.07-4.61-4.61-4.61h-3.39v14h3.39c2.54 0 4.61-2.07 4.61-4.61v-1.39h14.996v-5.888l6.464 2.418c.12.04.24.07.35.07.41 0 .79-.25.94-.65l1.537-4.106 3.393-.366 6.12 5.332c.18.16.42.24.65.24a.98.98 0 0 0 .94-.65l4.2-11.24c.12-.3.08-.65-.11-.92zm-27.556-4.869a1.001 1.001 0 0 1-1.3.557l-2.5-1a1 1 0 0 1 .743-1.857l2.5 1a1 1 0 0 1 .557 1.3z" fill="#59af17" class="fill-f93e2b"></path></svg>