<svg viewBox="0 0 48 48" xml:space="preserve" xmlns="http://www.w3.org/2000/svg"><path d="m47.641 31.641.008-.002-3.28-13.819a9.845 9.845 0 0 0-.213-.901l-.03-.122c-1.262-4.25-5.189-7.354-9.849-7.354a10.23 10.23 0 0 0-5.68 1.714H19.4a10.221 10.221 0 0 0-5.676-1.714c-5.12 0-9.354 3.75-10.136 8.647H3.58L.224 32.064c-.042.16-.086.318-.114.48l-.031.129.016.016c-.035.242-.074.48-.074.73 0 2.84 2.3 5.139 5.138 5.139 1.291 0 2.456-.49 3.353-1.279l.001.004 9.047-7.43h12.888l8.791 7.164c.254.258.539.49.846.691l.155.125v-.031c.762.463 1.638.756 2.597.756a5.14 5.14 0 0 0 5.142-5.139c0-.628-.129-1.222-.338-1.778zM34.77 13.142a2.282 2.282 0 0 1 2.282 2.284 2.281 2.281 0 0 1-2.282 2.286 2.282 2.282 0 0 1-2.286-2.286 2.283 2.283 0 0 1 2.286-2.284zm-14.605 6.786a2.284 2.284 0 0 1-2.284 2.286h-2.287v2.284a2.285 2.285 0 0 1-4.571 0v-2.284H8.738a2.285 2.285 0 0 1-2.286-2.286 2.285 2.285 0 0 1 2.286-2.286h2.284v-2.284a2.284 2.284 0 0 1 2.287-2.286 2.283 2.283 0 0 1 2.284 2.286v2.284h2.287a2.285 2.285 0 0 1 2.285 2.286zm9.935 2.355c-1.263 0-2.282-1.023-2.282-2.286a2.283 2.283 0 1 1 4.567 0 2.283 2.283 0 0 1-2.285 2.286zm4.67 4.571a2.284 2.284 0 0 1-2.286-2.287 2.284 2.284 0 1 1 4.568 0 2.283 2.283 0 0 1-2.282 2.287zm4.568-4.571a2.285 2.285 0 1 1 0-4.572c1.267 0 2.286 1.023 2.286 2.286s-1.02 2.286-2.286 2.286z" fill="#59af17" class="fill-241f20"></path></svg>