<svg viewBox="0 0 48 48" xmlns="http://www.w3.org/2000/svg"><path d="m19.803 12.872-.358.385-1.8 1.879-.346-.171A9.992 9.992 0 0 0 13 14C7.281 14 3 18.613 3 24c0 5.406 4.386 10 10 10 2.719 0 5.414-1.177 7.228-3.09l4.944-5.218 5.551-5.89C31.863 18.591 33.446 18 35 18c3.277 0 6 2.632 6 6 0 3.208-2.61 6-6 6-1.883 0-3.01-.589-4.493-2.054l-.686-.7-.648-.686-.752-.813a.5.5 0 0 0-.732-.006l-2.052 2.17a.5.5 0 0 0-.002.686l1.944 2.074.261.267c.343.342.69.655 1.068.953C30.598 33.22 32.585 34 35 34c5.665 0 10-4.619 10-10 0-5.45-4.387-10-10-10-2.812 0-5.46 1.155-7.424 3.28l-2.354 2.541-2.7 2.884-5.19 5.442C16.138 29.397 14.624 30 13 30c-3.402 0-6-2.785-6-6 0-3.219 2.592-6 6-6l.235.005c.401.016.84.072 1.235.167l.184.048-1.823 1.82-.264.266a.5.5 0 0 0 .307.85l5.923.572 1.645.149a.5.5 0 0 0 .542-.517l-.314-8.166a.5.5 0 0 0-.867-.322Zm-1.7 3.232 1.611-1.677.249 6.404-5.941-.568 1.876-1.873a.5.5 0 0 0-.109-.786C15.053 17.186 13.925 17 13 17c-3.976 0-7 3.244-7 7 0 3.752 3.03 7 7 7 1.89 0 3.667-.708 5.055-2.163l4.595-4.812 2.557-2.72 3.104-3.346C30.085 16.039 32.466 15 35 15c5.053 0 9 4.095 9 9 0 4.842-3.902 9-9 9-2.175 0-3.95-.696-5.473-1.895a11.075 11.075 0 0 1-.98-.875l-.246-.251-1.615-1.723 1.361-1.439.627.673.426.449.479.492C31.34 30.227 32.707 31 35 31c3.958 0 7-3.254 7-7 0-3.928-3.178-7-7-7-1.814 0-3.663.691-5.005 2.116L19.502 30.222C17.876 31.937 15.442 33 13 33c-5.05 0-9-4.136-9-9 0-4.85 3.85-9 9-9 1.528 0 3.055.376 4.495 1.193a.5.5 0 0 0 .608-.09Z" fill="#59af17" fill-rule="nonzero" class="fill-000000"></path></svg>