<svg viewBox="0 0 512 512" xml:space="preserve" xmlns="http://www.w3.org/2000/svg" enable-background="new 0 0 512 512"><path d="M203.773 72.086c-1.583.562-2.817 1.483-3.739 2.772-.921 1.291-1.373 2.706-1.373 4.256 0 1.416.412 2.733 1.252 3.956.831 1.206 2.125 2.194 3.86 2.935V72.086zM216.472 106.79c0-1.786-.542-3.337-1.609-4.627-1.058-1.302-2.802-2.291-5.232-2.991v15.745c2.019-.438 3.666-1.399 4.925-2.881 1.284-1.484 1.916-3.229 1.916-5.246zM325.76 248.721c24.779 0 44.939-20.055 44.939-44.706 0-24.653-20.16-44.709-44.939-44.709s-44.939 20.056-44.939 44.709c-.001 24.651 20.159 44.706 44.939 44.706zm-14.384-49.417c-2.448-3.046-3.675-6.724-3.675-11.065 0-4.394 1.389-8.083 4.15-11.062 2.762-2.993 6.43-4.71 11.025-5.164v-3.952h5.855v3.952c4.281.511 7.689 1.966 10.232 4.369 2.528 2.399 4.152 5.611 4.848 9.634l-10.219 1.318c-.637-3.158-2.253-5.297-4.861-6.426V196.6c6.471 1.732 10.879 3.995 13.215 6.757 2.35 2.769 3.52 6.326 3.52 10.662 0 4.848-1.477 8.924-4.424 12.248-2.958 3.325-7.053 5.383-12.311 6.206v7.492h-5.855v-7.412c-4.621-.563-8.367-2.263-11.267-5.134-2.901-2.869-4.742-6.933-5.559-12.162l10.477-1.238c.419 2.144 1.237 3.984 2.416 5.535 1.177 1.551 2.487 2.662 3.933 3.365v-16.818c-5.24-1.498-9.069-3.762-11.5-6.797z" fill="#59af17" class="fill-000000"></path><path d="M206.658 140.063c24.779 0 44.938-20.057 44.938-44.709 0-24.651-20.159-44.705-44.938-44.705-24.78 0-44.94 20.054-44.94 44.705 0 24.653 20.16 44.709 44.94 44.709zm-14.386-49.416c-2.447-3.046-3.666-6.729-3.666-11.066 0-4.394 1.38-8.088 4.144-11.066 2.762-2.99 6.437-4.707 11.024-5.16V59.4h5.857v3.955c4.281.506 7.689 1.961 10.233 4.365 2.527 2.404 4.151 5.614 4.854 9.638l-10.224 1.318c-.631-3.16-2.255-5.301-4.863-6.427v15.692c6.468 1.729 10.879 3.995 13.212 6.752 2.352 2.773 3.521 6.331 3.521 10.668 0 4.847-1.47 8.922-4.426 12.247-2.956 3.32-7.052 5.377-12.308 6.206v7.492h-5.857v-7.412c-4.62-.564-8.366-2.267-11.267-5.137-2.899-2.866-4.741-6.93-5.557-12.159l10.476-1.237c.429 2.141 1.235 3.982 2.414 5.535 1.188 1.546 2.489 2.66 3.934 3.36V97.439c-5.232-1.495-9.069-3.757-11.501-6.792zM335.574 215.447c0-1.786-.542-3.332-1.609-4.623-1.056-1.307-2.802-2.295-5.232-2.994v15.744c2.012-.438 3.666-1.399 4.928-2.882 1.275-1.483 1.913-3.224 1.913-5.245zM322.877 180.742c-1.582.564-2.82 1.483-3.738 2.774-.923 1.29-1.373 2.705-1.373 4.256 0 1.416.412 2.734 1.25 3.955.832 1.206 2.123 2.195 3.861 2.939v-13.924zM430.943 297.225c-1.908 0-3.689.112-5.295.333-25.018 3.448-65.229 21.193-86.506 38.118-5.229 7.654-15.941 11.491-32.395 11.491-15.544 0-36.194-3.412-62.154-10.233l-1.864-.488a4.685 4.685 0 0 1 2.356-9.07l1.891.495c63.72 16.745 80.363 8.787 84.571 2.342.191-.438.397-.89.62-1.367 1.036-2.228 2.209-4.753 1.872-6.882-3.95-25.001-71.758-36.246-118.645-36.246-11.571 0-21.399.683-27.674 1.922-22.834 4.506-53.826 20.369-73.103 31.161l.002.003c10.272 12.179 25.223 36.275 36.165 55.898l.028.05c.465.835.923 1.662 1.374 2.479l.05.092c.437.793.867 1.578 1.288 2.352l.043.08a508.877 508.877 0 0 1 2.411 4.493l.323.612a435.013 435.013 0 0 1 1.194 2.285c.222.427.439.85.652 1.267.135.262.269.522.399.78.241.475.479.942.709 1.401.14.278.275.552.411.824a217.977 217.977 0 0 1 1.36 2.782l.249.515c16.517-6.025 31.029-8.959 44.25-8.959 17.813 0 31.269 5.323 44.282 10.472 13.518 5.348 27.496 10.878 47.255 10.878 2.76 0 5.619-.108 8.498-.322 16.502-1.224 55.08-17.848 91.732-39.53 43.938-25.991 63.322-46.331 62.74-54.229-.846-11.593-17.86-15.799-29.089-15.799zM157.056 218.576a4.686 4.686 0 0 0 4.686-4.686V164.5a4.686 4.686 0 0 0-9.372 0v49.39a4.687 4.687 0 0 0 4.686 4.686zM182.142 174.375v69.151a4.686 4.686 0 0 0 9.372 0v-69.151a4.686 4.686 0 0 0-9.372 0zM296.002 100.04a4.686 4.686 0 0 0 4.686-4.686V45.963a4.686 4.686 0 0 0-9.372 0v49.391a4.686 4.686 0 0 0 4.686 4.686zM325.775 129.674a4.686 4.686 0 0 0 4.686-4.686V55.843a4.686 4.686 0 0 0-9.372 0v69.146a4.686 4.686 0 0 0 4.686 4.685z" fill="#59af17" class="fill-000000"></path><path d="m416.969 461.352-331.839-.005c3.546-1.849 7.601-3.928 11.937-6.151 11.893-6.098 26.694-13.687 38.641-20.466 18.764-10.647 21.314-14.173 21.636-14.771 1.59-3.507.645-9.391-2.822-17.463-1.969-4.584-5.111-10.841-8.927-17.89-12.298-22.709-31.604-53.631-41.26-63.196-.133-.131-.266-.265-.396-.387-5.834-5.569-9.398-8.053-11.554-8.053-.392 0-1.05.067-2.237.654-8.641 4.258-35.564 25.494-38.053 30.704-.29.605-.409.856 2.614 4.107 2.593 2.789 6.145 6.61 7.626 12.48 4.252 16.938 1.956 37.341-.265 57.071-2.21 19.647-4.298 38.205.148 51.223.177.517.377 1.104 2.333 1.104.752 0 1.624-.118 2.562-.322.722.454 1.57.727 2.486.727l347.37.005a4.686 4.686 0 0 0 0-9.371zm-310.165-62.965c5.443-.614 10.361 3.284 10.976 8.703.62 5.417-3.296 10.31-8.74 10.925-5.445.61-10.363-3.285-10.976-8.702-.614-5.42 3.295-10.311 8.74-10.926z" fill="#59af17" class="fill-000000"></path></svg>