<svg overflow="hidden" viewBox="0 0 96 96" xmlns="http://www.w3.org/2000/svg"><path d="M68.5 47c-.4 0-.7 0-1.1.1-.3-1.2-1.1-2.3-2.4-2.8l-8.5-3.4L51 28.2c-1.1-3-4-5.2-7.5-5.2-1.8 0-3.4.6-4.7 1.5l-13.5 9.1c-.8.6-1.4 1.4-1.7 2.4l-3 13c-.5 2.2.8 4.3 3 4.8.3.1.6.1.9.1 1.8 0 3.5-1.3 3.9-3.1L31 39.4l2.5-1.7c-1 6.8-1.1 12.2-1.1 13.1l-1 17.5L27.5 86c-.5 2.2.9 4.3 3 4.8.3.1.6.1.9.1 1.8 0 3.5-1.3 3.9-3.1l4-18c0-.2.1-.4.1-.6l.5-9.8 6.5 7.2.9 18.6c.1 2.1 1.9 3.8 4 3.8h.2c2.2-.1 3.9-2 3.8-4.2l-1-20c0-.9-.4-1.8-1-2.5l-7-7.7V38.4s.1 0 .1-.1l3.2 7.3c.4 1 1.2 1.7 2.2 2.1l9.9 4c-.3.7-.4 1.5-.4 2.3 0 2.2 1 4.1 2.6 5.4l.1.1c.3.3.8.5 1.3.5 1.1 0 2-.9 2-2 0-.7-.3-1.3-.8-1.6-.5-.6-1-1.4-1-2.4 0-1.7 1.3-3 3-3s3 1.3 3 3v35c0 1.1.9 2 2 2s2-.9 2-2V54c0-3.9-3.1-7-7-7Z" fill="#59af17" class="fill-000000"></path><circle cx="49" cy="14" r="8" fill="#59af17" class="fill-000000"></circle></svg>