<svg viewBox="0 0 846.66 846.66" xml:space="preserve" xmlns="http://www.w3.org/2000/svg" shape-rendering="geometricPrecision" text-rendering="geometricPrecision" image-rendering="optimizeQuality" fill-rule="evenodd" clip-rule="evenodd"><path d="M480.54 160.08 302.32 75.81l-70.74 19.95 122.99 96.7 125.97-32.38zM654.9 752.39c22.53-13.91 43.7 20.38 21.18 34.29-89.15 55.02-234.39 11.22-319.83-30.48-125.62-61.31-253.64-174.05-285.51-315.97-5.81-25.88 33.53-34.72 39.35-8.85 29.1 129.58 149.61 232.73 263.85 288.48 71.22 34.75 205.83 78.91 280.96 32.53zm39.08-355.99c45.86 0 83.05 37.19 83.05 83.06 0 45.86-37.19 83.05-83.05 83.05-45.87 0-83.06-37.19-83.06-83.05 0-45.87 37.19-83.06 83.06-83.06zm0 40.45c-23.53 0-42.61 19.08-42.61 42.61s19.08 42.6 42.61 42.6c23.52 0 42.6-19.07 42.6-42.6s-19.08-42.61-42.6-42.61zm0-100.65c78.39 0 141.95 63.55 141.95 141.95 0 59.59-74.02 264.99-141.95 264.99-67.94 0-141.96-205.4-141.96-264.99 0-78.4 63.56-141.95 141.96-141.95zm0 40.45c-56.07 0-101.51 45.44-101.51 101.5 0 40.51 66.59 224.54 101.51 224.54 34.91 0 101.5-184.03 101.5-224.54 0-56.06-45.44-101.5-101.5-101.5zm-295.2-6.96-64.77 163.42 23.96 9.45 160.95-201.91-120.14 29.04zM289.11 537.05l61.73-155.77-109.04 26.36c-66.74 16.14-171.49-.25-192.53-76.87L11.9 194.7c-3.94-11.04 2.47-23.26 13.82-26.29l48.22-12.86c6.37-1.7 13.45-.23 18.71 4.52l85.82 77.65 126.85-32.6-129.91-102.14c-12.75-10.07-9.04-30.8 7.04-35.31l116.2-32.78c4.52-1.26 9.49-.97 14.07 1.19l228.99 108.27 73.11-18.79c23.21-5.97 45.18-5.06 67.81 2.82l104.85 36.53c57.88 20.16 52.57 98.11-3.39 111.63l-201.22 48.65L380.56 579c-5.32 7.03-14.85 9.99-23.46 6.63l-56.47-22.29c-10.36-4.04-15.66-15.85-11.52-26.29zm485.5-299.7c17.52-4.23 19.03-27.6-.4-34.36l-104.85-36.52c-15.08-5.26-29.12-5.85-44.59-1.88-148.94 38.28-297.86 76.57-446.8 114.85-6.93 1.77-13.94-.3-18.79-4.86l-85.37-77.24-18.07 4.85 32.4 117.99c14.54 52.95 100.79 58.77 144.18 48.28 180.76-43.7 361.53-87.41 542.29-131.11z" fill="#59af17" fill-rule="nonzero" class="fill-000000"></path></svg>